# xmcd
#
# Track frame offsets:
# 150
# 23352
# 42823
# 63587
# 84359
# 99227
# 119753
# 153208
# 171965
# 196817
# 213430
# 233092
# 256787
# 276464
# 296576
#
# Disc length: 4232 seconds
#
# Revision: 0
# Processed by: cddbd v1.5.2PL0 Copyright (c) Steve Scherf et al.
# Submitted via: Audion 3.0.2 (http://www.panic.com/audion/)
#
DISCID=c710860f
DTITLE=Disco 3 - Grandes adoradores
DYEAR=1900
DGENRE=
TTITLE0=Te pido la paz
TTITLE1=Clamar amor
TTITLE2=Tu, solo Tu
TTITLE3=No soy peligroso
TTITLE4=Como no creer en Dios
TTITLE5=Saname
TTITLE6=Como decirte que te amo
TTITLE7=Mi fuerza y mi castillo
TTITLE8=Atare mis manos
TTITLE9=Gloria a Ti Señor
TTITLE10=Como un granito de mostaza
TTITLE11=A edificar la iglesia
TTITLE12=Hiho mio
TTITLE13=Hay una fuente en mi
TTITLE14=Quiero amarte
EXTD=
EXTT0=
EXTT1=
EXTT2=
EXTT3=
EXTT4=
EXTT5=
EXTT6=
EXTT7=
EXTT8=
EXTT9=
EXTT10=
EXTT11=
EXTT12=
EXTT13=
EXTT14=
PLAYORDER=
